<svg width="1300" height="1040" viewBox="0 0 1300 1040" xmlns="http://www.w3.org/2000/svg"><g fill="none" fill-rule="nonzero"><path d="M733.81 569.23c1.7-13.07 5.52-22.15 23.9-57.63 18.67-36.12 26-47.06 38.95-57.63 10.6-8.68 23.49-13.2 42.01-14.97a95.65 95.65 0 0 1 38.22 3.95c16.73 5.11 23.4 9.97 30.67 22.45 5.66 9.88 8.6 18.73 16.22 48.87 9.36 37.48 9.85 49.55 3 68.89-4.44 12.45-9.73 20.87-18.52 29.78-10.8 11.03-21.96 17.76-42.6 25.78a592.56 592.56 0 0 0-20.75 9.03c-27.9 12.59-38.75 15.23-51.1 12.19-5.72-1.44-8.48-2.7-12.76-5.79-13.05-9.32-25.28-24.04-34.83-41.7-10.25-18.82-13.92-31.76-12.4-43.22zM722.24 835.9c.58-3.59 2.58-10.5 4.4-15.39 11.73-32.59 39.07-63.86 84.06-96.43 15.07-10.98 52.01-35.02 67.63-44.05 23.04-13.45 42.08-18.93 59.84-17.16 16.61 1.74 48.86 14.94 70.22 28.9 20.55 13.5 35.52 30.52 48.97 55.64 16.33 30.72 25.51 63.96 30.47 110.33 13.5 124.8-29.41 189.59-120.06 181.32-21.15-1.96-56.14-10.99-80.1-20.83-73.17-29.9-127.98-71.22-152.15-114.59-13.02-23.43-17.2-45-13.28-67.74zm251.64-340.82c.6-6.09 1.17-7.59 4.98-14.9 12.75-23.91 42.96-50.23 66.93-58.17 30.02-9.95 71.29-6.75 89.91 6.9 19.89 14.65 39.48 49.08 44.47 77.9 3.78 22.17 2.66 41.9-3.86 63.23-5.52 18.08-7.96 21.93-17.56 27.68-8.5 4.92-13.12 6.34-33.69 9.98-24.4 4.25-28.92 6.01-49.69 19.22-19.33 12.28-27.02 16.2-35.86 18.1-4.81 1.04-6.75.87-12.87-1-15.75-4.92-21.34-16.04-28.5-56.92-2.76-15.6-4.69-22.98-8.78-33.54-10.11-26.1-12.08-31.61-13.6-37.62-1.7-7.1-2.43-15.28-1.88-20.86zm135.6 223.41c1.34-8.8 6.88-23.83 11.72-31.45 8.16-12.67 20.4-22.94 36.47-30.36 10.22-4.72 42.83-17.65 51.02-20.17 16.64-5.16 29.55-4.97 40.48.67 18.52 9.53 38.23 33.65 46.44 57.07 3.47 9.84 4.3 15.01 4.14 25.1-.1 7.19-.7 10.15-5.44 25.32-4.62 15.11-6.86 20.39-17.7 43.21-13.56 28.6-18.6 37.92-25.11 45.87-9.4 11.56-17.85 15.98-37.54 19.47a155.69 155.69 0 0 1-37.02 2.07c-10.87-.7-29.52-6.4-34.8-10.64-9.4-7.26-15.88-21.27-20.87-44.97a1337.6 1337.6 0 0 0-6.47-28.11c-5.91-24.09-7.38-38.44-5.31-53.08z" fill="#5A4F44"/><path d="M4.79 307.48c-3.5-23.8-3.9-28.6-4-47.4-.1-23.1.7-28.3 6.1-39 4.2-8.3 10-15.6 20-25.2s18.2-15.3 29.2-20.4c22.4-10.4 36.9-9.1 58.1 5.3 5.7 3.8 31.2 24.1 42.3 33.6 7.4 6.3 16.6 18 20.8 26.3 5.6 11.1 7.6 20.3 7.6 34.8.1 19.5-4.9 35.3-17.2 55-2.9 4.7-8.8 15-13.2 23-15.5 28.1-24.1 38.8-35.8 44.4-6.2 2.9-7.1 3.1-18.5 3-17.4-.1-35.1-4.7-52.7-13.5-29.7-14.9-34.5-24-42.7-79.9zm149.3 245.3c-2-11.8-1.2-44.3 1.6-60.3 3-17.3 9-40.6 15.4-59.5 6.3-18.5 19.4-53.5 25.6-68 19-44.6 35.7-59.8 77.5-70.4 38-9.5 63-9.6 91.8 0 29 9.6 57.4 28.1 87.1 56.9 43.5 42.3 70.9 84.9 79.2 123.5 2.6 12.2 2.4 33.5-.4 44.8-10.6 42.5-51.1 75.5-121.2 98.7-42.7 14.2-83.3 21.1-123.5 21.1-49.4 0-83.8-10.8-106.9-33.7-14-13.8-22.1-30.4-26.2-53.1zm10.6-411.2c-1.5-7.8-.4-31.6 1.9-43.4 7.1-35.5 22.3-59.1 51.7-80.2 25-18 44-21.7 71.1-13.9 11.8 3.3 33 13.8 42.8 21.1 23.3 17.4 42.7 47.8 47.5 74.5 2.7 14.5-2.7 25.7-23.1 47.4-17.8 19.1-20.9 24.1-30.4 49.4-12.6 33.2-21.9 44-38 44-12.3 0-21.4-5.5-44-26.7-17.1-15.9-20.5-18.4-41.5-31.1-25.4-15.2-35.3-25.9-38-41.1zm235.1 81.8c-.5-2.4-.9-8.9-1-14.4-.1-12.6 2.4-23.7 8.3-36 4.6-9.7 27.4-47.6 33.8-56.2 14.6-19.8 31.1-27.1 55.2-24.4 22.8 2.6 48.4 14.1 59.7 26.9 12.3 14 17.7 29.5 25.9 74.2 8.3 45.3 8.7 58.2 2.4 71.9-8.6 18.9-39.6 46.6-61.8 55.2-20.1 7.8-33.6 3.6-58.5-18.3-5.2-4.6-12.8-11.1-17-14.6-4.2-3.5-11.1-9.3-15.5-12.9-16.1-13.5-27.8-32.7-31.5-51.4z" fill="#75695C"/></g></svg>